<svg width="810" height="703" viewBox="0 0 810 703" fill="none" xmlns="http://www.w3.org/2000/svg">
        <path d="M406 0.5C406 0.5 406 104.5 406 116C406 127.5 394.5 127.5 394.5 127.5H309C309 127.5 296 127.5 296 116C296 104.5 296 79.5 296 66.5C296 53.5 285.5 53.5 285.5 53.5C285.5 53.5 83 53.5 70 53.5C57 53.5 57 66.5 57 66.5V164.5C57 164.5 57 181 73.5 181C90 181 277 181 277 181C277 181 296 181 296 164.5C296 148 296 151.5 296 141.5C296 131.5 309 131.5 309 131.5H394.5C394.5 131.5 406 131.5 406 141.5C406 151.5 406 199 406 210.5C406 222 417.5 222 417.5 222H500.5C500.5 222 514.5 222 514.5 210.5C514.5 199 514.5 182 514.5 164.5C514.5 147 532 147 532 147C532 147 696.5 147 716.5 147C736.5 147 736.5 164.5 736.5 164.5C736.5 164.5 736.5 240 736.5 258.5C736.5 277 716.5 277 716.5 277C716.5 277 549.5 277 532 277C514.5 277 514.5 261 514.5 261C514.5 261 514.5 253.5 514.5 241C514.5 228.5 500.5 224.5 500.5 224.5H417.5C417.5 224.5 406 228.5 406 238.5C406 248.5 406 293.5 406 307C406 320.5 392 320.5 392 320.5H309C309 320.5 296 320.5 296 307C296 293.5 296 254 296 234C296 214 277 214 277 214H23.5C23.5 214 1 214 1 234C1 254 1 380 1 401C1 422 23.5 422 23.5 422H277C277 422 296 422 296 405C296 388 296 358.5 296 343C296 327.5 309 324 309 324H392C392 324 406 327.5 406 338C406 348.5 406 399.5 406 412C406 424.5 417.5 424.5 417.5 424.5H500.5C500.5 424.5 514.5 424.5 514.5 409.5C514.5 394.5 514.5 389.5 514.5 375.5C514.5 361.5 527.5 361.5 527.5 361.5H794.5C794.5 361.5 809 361.5 809 375.5C809 389.5 809 456 809 475C809 494 794.5 494 794.5 494C794.5 494 549.5 494 532 494C514.5 494 514.5 478.5 514.5 478.5C514.5 478.5 514.5 456 514.5 444C514.5 432 500.5 429.5 500.5 429.5C500.5 429.5 429 429.5 417.5 429.5C406 429.5 406 444 406 444C406 444 406 519.5 406 529.5C406 539.5 394.5 539.5 394.5 539.5H309C309 539.5 296 539.5 296 526C296 512.5 296 493 296 478.5C296 464 280 464 280 464C280 464 51.5 464 34 464C16.5 464 16.5 478.5 16.5 478.5C16.5 478.5 16.5 598.5 16.5 615C16.5 631.5 34 631.5 34 631.5C34 631.5 264 631.5 280 631.5C296 631.5 296 615 296 615C296 615 296 569.5 296 557.5C296 545.5 309 543 309 543H394.5C394.5 543 406 545.5 406 557.5C406 569.5 406 703 406 703" stroke="black"/>
      </svg>
