<svg width="810" height="703" viewBox="0 0 810 703" fill="none" xmlns="http://www.w3.org/2000/svg">
<path d="M406 703C406 703 406 569.5 406 557.5V543H394.5H302.5C302.5 543 296 545.5 296 557.5C296 569.5 296 615 296 615C296 615 296 631.5 280 631.5C264 631.5 34 631.5 34 631.5C34 631.5 16.5 631.5 16.5 615C16.5 598.5 16.5 478.5 16.5 478.5C16.5 478.5 16.5 464 34 464C51.5 464 280 464 280 464C280 464 296 464 296 478.5C296 493 296 512.5 296 526C296 539.5 302.5 541.5 302.5 541.5H394.5H406V429H417.5C429 429 509.5 429 509.5 429C509.5 429 514.5 432 514.5 444C514.5 456 514.5 478.5 514.5 478.5C514.5 478.5 514.5 494 532 494C549.5 494 794.5 494 794.5 494C794.5 494 809 494 809 475C809 456 809 389.5 809 375.5C809 361.5 794.5 361.5 794.5 361.5H527.5C527.5 361.5 514.5 361.5 514.5 375.5C514.5 389.5 514.5 394.5 514.5 409.5C514.5 424.5 509.5 427.5 509.5 427.5H417.5H406V324H392H302.5C302.5 324 296 327.5 296 343C296 358.5 296 388 296 405C296 422 277 422 277 422H23.5C23.5 422 1 422 1 401C1 380 1 254 1 234C1 214 23.5 214 23.5 214H277C277 214 296 214 296 234C296 254 296 293.5 296 307C296 320.5 302.5 322.5 302.5 322.5H392H406V223.5H417.5H509.5C509.5 223.5 514.5 228.5 514.5 241C514.5 253.5 514.5 261 514.5 261C514.5 261 514.5 277 532 277C549.5 277 716.5 277 716.5 277C716.5 277 736.5 277 736.5 258.5C736.5 240 736.5 164.5 736.5 164.5C736.5 164.5 736.5 147 716.5 147C696.5 147 532 147 532 147C532 147 514.5 147 514.5 164.5C514.5 182 514.5 199 514.5 210.5C514.5 222 509.5 222 509.5 222H417.5H406V131.5H394.5H302.5C302.5 131.5 296 131.5 296 141.5C296 151.5 296 148 296 164.5C296 181 277 181 277 181C277 181 90 181 73.5 181C57 181 57 164.5 57 164.5V66.5C57 66.5 57 53.5 70 53.5C83 53.5 285.5 53.5 285.5 53.5C285.5 53.5 296 53.5 296 66.5C296 79.5 296 104.5 296 116C296 127.5 302.5 129.5 302.5 129.5H394.5H406V0" stroke="black"/>
</svg>
